<?xml version="1.0" encoding="UTF-8" standalone="no"?>
<!DOCTYPE svg PUBLIC "-//W3C//DTD SVG 1.1//EN" "http://www.w3.org/Graphics/SVG/1.1/DTD/svg11.dtd">
<svg xmlns="http://www.w3.org/2000/svg" version="1.1" viewBox="0.00 0.00 1253.00 1253.00">
<path fill="#ffffff" d="
  M 1153.76 194.65
  C 1157.27 195.78 1160.86 197.61 1164.26 199.00
  A 0.56 0.56 0.0 0 1 1164.45 199.91
  C 1160.32 204.05 1155.76 208.65 1152.08 212.33
  Q 894.23 470.10 636.43 727.93
  Q 632.53 731.83 627.37 738.09
  Q 627.05 738.49 626.73 738.09
  Q 622.14 732.39 617.00 727.25
  Q 360.30 470.58 103.68 213.82
  Q 97.30 207.44 90.06 200.43
  Q 88.85 199.25 90.42 198.63
  C 94.74 196.90 99.06 194.95 103.63 193.67
  C 114.21 190.70 124.07 187.84 135.79 187.02
  Q 141.38 186.63 153.72 186.62
  C 471.23 186.60 788.74 186.62 1106.25 186.61
  C 1113.37 186.61 1122.06 187.10 1129.51 188.49
  Q 1141.82 190.80 1153.76 194.65
  Z"
/>
<path fill="#ffffff" d="
  M 389.97 627.31
  L 27.34 989.97
  Q 26.89 990.42 26.63 989.84
  C 18.74 972.28 13.95 952.90 14.33 933.59
  Q 14.51 924.53 14.51 924.40
  Q 14.51 628.63 14.51 332.86
  Q 14.51 332.77 14.18 320.14
  C 13.69 300.48 18.23 280.91 26.44 262.30
  Q 26.74 261.63 27.28 262.15
  Q 43.98 278.50 58.72 293.24
  Q 221.75 456.36 384.78 619.47
  Q 387.68 622.37 390.07 625.24
  A 1.53 1.53 0.0 0 1 389.97 627.31
  Z"
/>
<path fill="#ffffff" d="
  M 1231.54 979.45
  C 1230.52 982.59 1229.09 986.74 1227.30 989.51
  Q 1227.00 989.97 1226.60 989.60
  Q 1220.55 983.99 1214.78 978.22
  C 1163.29 926.67 1113.36 876.35 1060.25 823.51
  C 1027.70 791.13 995.47 758.44 962.97 726.03
  Q 951.33 714.42 939.70 702.80
  Q 928.88 692.00 918.06 681.19
  Q 900.79 663.96 883.45 646.80
  C 876.92 640.34 869.38 633.75 863.74 626.54
  A 1.04 1.03 47.7 0 1 863.80 625.18
  Q 876.00 612.28 888.69 599.69
  Q 910.01 578.51 931.26 557.26
  Q 989.56 498.93 1048.02 440.77
  Q 1053.72 435.11 1059.39 429.42
  C 1114.96 373.56 1170.43 317.73 1226.54 262.22
  A 0.63 0.62 55.2 0 1 1227.55 262.41
  C 1235.93 280.37 1239.96 300.91 1239.96 320.75
  Q 1239.95 623.07 1239.96 925.40
  Q 1239.96 938.29 1239.54 944.09
  C 1238.60 956.94 1235.33 967.92 1231.54 979.45
  Z"
/>
<path fill="#ffffff" d="
  M 611.55 841.92
  C 616.25 843.69 622.12 845.61 628.48 845.11
  C 642.53 844.01 650.18 838.55 660.08 828.58
  Q 678.25 810.25 696.45 791.95
  C 701.05 787.31 706.04 782.80 710.41 778.25
  Q 718.27 770.06 726.31 762.06
  Q 737.53 750.90 748.73 739.73
  Q 759.62 728.87 770.44 717.94
  Q 784.39 703.86 799.23 689.79
  A 1.85 1.85 0.0 0 1 801.62 689.66
  Q 803.93 691.42 806.25 693.75
  C 925.49 813.31 1045.30 932.32 1164.41 1052.02
  A 0.48 0.48 0.0 0 1 1164.27 1052.79
  Q 1143.68 1062.24 1121.23 1064.66
  Q 1114.49 1065.38 1101.25 1065.39
  Q 627.81 1065.39 154.38 1065.39
  Q 140.68 1065.39 134.38 1064.79
  Q 111.14 1062.58 89.83 1052.82
  A 0.63 0.62 35.1 0 1 89.65 1051.81
  L 451.51 690.01
  Q 453.06 688.45 454.78 689.95
  Q 460.98 695.35 466.43 700.82
  Q 530.72 765.40 595.24 829.77
  C 599.94 834.46 605.42 839.61 611.55 841.92
  Z"
/>
</svg>
