<?xml version="1.0" encoding="UTF-8" standalone="no"?>
<!DOCTYPE svg PUBLIC "-//W3C//DTD SVG 1.1//EN" "http://www.w3.org/Graphics/SVG/1.1/DTD/svg11.dtd">
<svg xmlns="http://www.w3.org/2000/svg" version="1.1" viewBox="0.00 0.00 211.00 211.00">
<path fill="#ffffff" d="
  M 183.91 52.07
  C 190.89 51.79 198.70 49.00 205.19 46.44
  Q 205.85 46.18 205.44 46.76
  Q 197.45 58.21 186.30 66.61
  A 1.29 1.27 -20.4 0 0 185.78 67.73
  C 188.80 115.61 160.47 160.26 115.50 177.60
  Q 94.69 185.63 71.99 185.96
  C 49.02 186.30 26.15 178.63 6.86 166.54
  Q 6.01 166.01 7.02 166.01
  C 29.20 166.00 48.68 166.88 66.76 151.70
  Q 67.28 151.27 66.61 151.21
  C 49.83 149.77 32.82 143.45 26.21 126.47
  Q 25.96 125.83 26.64 125.94
  C 35.00 127.26 42.55 127.96 51.24 126.44
  Q 53.13 126.11 54.54 125.35
  Q 55.25 124.97 54.47 124.76
  C 36.05 119.67 18.35 110.29 15.85 88.95
  Q 15.65 87.28 16.92 88.37
  C 23.77 94.27 34.64 95.06 42.92 92.62
  Q 43.68 92.40 42.97 92.06
  Q 29.07 85.30 20.55 72.45
  C 13.93 62.46 15.12 47.66 18.39 36.58
  A 0.36 0.36 0.0 0 1 19.02 36.45
  C 37.90 60.12 64.56 75.83 95.45 75.96
  Q 95.96 75.96 95.94 75.46
  Q 95.11 49.06 114.27 34.97
  C 128.46 24.54 146.28 23.28 162.03 31.27
  C 165.68 33.12 168.93 35.88 172.09 38.64
  Q 172.47 38.97 172.97 38.88
  C 184.13 36.68 195.23 31.75 205.26 26.49
  Q 205.82 26.20 205.62 26.80
  C 202.35 36.36 191.89 46.11 183.80 51.74
  Q 183.29 52.09 183.91 52.07
  Z"
/>
</svg>
