<?xml version="1.0" encoding="UTF-8" standalone="no"?>
<!DOCTYPE svg PUBLIC "-//W3C//DTD SVG 1.1//EN" "http://www.w3.org/Graphics/SVG/1.1/DTD/svg11.dtd">
<svg xmlns="http://www.w3.org/2000/svg" version="1.1" viewBox="0.00 0.00 488.00 511.00">
<path fill="#ffffff" d="
  M 71.62 411.88
  C -25.54 304.63 -1.07 133.15 121.77 57.59
  C 185.59 18.33 266.23 12.79 335.12 41.63
  C 454.24 91.48 507.36 230.22 457.42 347.93
  C 432.80 405.95 383.55 452.46 324.25 473.68
  C 235.49 505.44 135.14 481.99 71.62 411.88
  Z
  M 310.57 182.51
  A 66.59 66.59 0.0 0 0 243.98 115.92
  A 66.59 66.59 0.0 0 0 177.39 182.51
  A 66.59 66.59 0.0 0 0 243.98 249.10
  A 66.59 66.59 0.0 0 0 310.57 182.51
  Z
  M 264.89 447.00
  C 310.36 441.44 352.36 419.07 384.78 387.13
  Q 389.67 382.32 391.53 378.80
  C 395.66 370.99 395.42 360.89 390.95 353.41
  Q 388.98 350.11 381.27 342.31
  C 347.47 308.08 304.29 285.70 255.99 282.23
  C 197.68 278.03 142.83 304.00 103.39 345.75
  Q 97.52 351.97 95.50 356.76
  Q 91.40 366.50 95.40 376.21
  Q 97.45 381.18 103.61 387.69
  C 132.21 417.94 169.89 438.76 211.19 445.51
  C 228.77 448.38 247.13 449.18 264.89 447.00
  Z"
/>
</svg>
