<?xml version="1.0" encoding="UTF-8" standalone="no"?>
<!DOCTYPE svg PUBLIC "-//W3C//DTD SVG 1.1//EN" "http://www.w3.org/Graphics/SVG/1.1/DTD/svg11.dtd">
<svg xmlns="http://www.w3.org/2000/svg" version="1.1" viewBox="0.00 0.00 512.00 512.00">
<path fill="#256178" d="
  M 346.87 0.00
  L 350.48 0.00
  Q 362.92 2.36 366.86 12.83
  Q 368.26 16.53 368.27 23.85
  Q 368.29 43.98 368.24 64.24
  Q 368.24 64.83 367.65 64.83
  L 150.24 64.83
  Q 148.67 64.83 150.16 64.34
  Q 245.23 33.02 340.95 1.43
  Q 343.84 0.47 346.87 0.00
  Z"
/>
<path fill="#256178" d="
  M 410.13 512.00
  L 101.75 512.00
  Q 100.33 511.67 98.92 511.34
  C 89.76 509.21 83.85 500.71 83.85 491.75
  Q 83.86 303.62 83.74 115.50
  C 83.73 106.43 89.43 98.11 98.21 95.65
  Q 100.97 94.87 108.11 94.87
  Q 258.18 94.88 408.25 95.11
  C 419.64 95.13 428.10 103.66 428.11 115.00
  Q 428.14 302.87 428.16 490.75
  Q 428.17 508.55 410.13 512.00
  Z
  M 240.50 194.26
  C 199.32 201.80 167.42 232.89 160.53 274.46
  Q 160.47 274.85 160.08 274.82
  C 153.17 274.21 147.06 276.02 143.38 282.30
  C 138.90 289.97 142.13 300.63 150.55 303.67
  Q 153.52 304.75 161.56 304.75
  Q 257.28 304.75 353.00 304.74
  C 359.58 304.74 364.68 303.49 368.16 298.18
  C 373.79 289.60 369.79 278.65 360.27 275.51
  C 357.70 274.66 354.82 274.72 352.02 274.78
  Q 351.48 274.79 351.39 274.26
  C 344.24 232.95 312.84 201.49 271.50 194.38
  A 0.63 0.62 -84.7 0 1 270.98 193.75
  C 271.08 186.11 271.37 179.10 264.51 174.50
  C 256.05 168.84 244.92 172.74 241.80 182.17
  C 240.67 185.58 240.99 189.82 241.02 193.64
  Q 241.02 194.16 240.50 194.26
  Z
  M 248.6892 359.6514
  A 14.50 14.50 0.0 0 0 234.1639 345.1767
  L 161.6240 345.3033
  A 14.50 14.50 0.0 0 0 147.1493 359.8286
  L 147.1508 360.7086
  A 14.50 14.50 0.0 0 0 161.6761 375.1833
  L 234.2160 375.0567
  A 14.50 14.50 0.0 0 0 248.6907 360.5314
  L 248.6892 359.6514
  Z
  M 366.9194 419.6064
  A 14.76 14.76 0.0 0 0 352.1337 404.8722
  L 159.8140 405.2079
  A 14.76 14.76 0.0 0 0 145.0798 419.9936
  L 145.0806 420.4336
  A 14.76 14.76 0.0 0 0 159.8663 435.1678
  L 352.1860 434.8321
  A 14.76 14.76 0.0 0 0 366.9202 420.0464
  L 366.9194 419.6064
  Z"
/>
<path fill="#256178" d="
  M 191.27 274.20
  C 196.40 250.40 216.10 231.51 238.68 225.37
  C 273.46 215.92 308.30 235.86 319.58 269.75
  Q 320.31 271.94 320.74 274.20
  Q 320.85 274.77 320.27 274.77
  L 191.73 274.77
  Q 191.15 274.77 191.27 274.20
  Z"
/>
</svg>
