<?xml version="1.0" encoding="UTF-8" standalone="no"?>
<!DOCTYPE svg PUBLIC "-//W3C//DTD SVG 1.1//EN" "http://www.w3.org/Graphics/SVG/1.1/DTD/svg11.dtd">
<svg xmlns="http://www.w3.org/2000/svg" version="1.1" viewBox="0.00 0.00 512.00 512.00">
<path fill="#256178" d="
  M 309.28 512.00
  L 218.70 512.00
  Q 218.73 456.00 218.56 400.00
  C 218.51 383.30 207.78 368.72 191.92 364.18
  Q 186.74 362.70 175.45 362.69
  Q 152.60 362.66 129.75 362.67
  Q 112.68 362.67 101.74 373.49
  C 94.95 380.20 90.66 389.73 90.66 399.25
  Q 90.68 455.63 90.67 512.00
  L 19.25 512.00
  Q 2.80 509.07 0.00 492.67
  L 0.00 38.75
  C 2.30 16.20 21.08 1.02 43.73 4.43
  Q 156.51 21.41 269.26 38.57
  Q 282.79 40.63 287.88 42.98
  C 300.81 48.95 309.26 62.26 309.26 76.75
  Q 309.33 294.38 309.28 512.00
  Z
  M 133.13 105.90
  A 15.12 15.12 0.0 0 0 118.01 90.78
  L 84.61 90.78
  A 15.12 15.12 0.0 0 0 69.49 105.90
  L 69.49 107.46
  A 15.12 15.12 0.0 0 0 84.61 122.58
  L 118.01 122.58
  A 15.12 15.12 0.0 0 0 133.13 107.46
  L 133.13 105.90
  Z
  M 239.82 105.92
  A 15.14 15.14 0.0 0 0 224.68 90.78
  L 191.32 90.78
  A 15.14 15.14 0.0 0 0 176.18 105.92
  L 176.18 107.44
  A 15.14 15.14 0.0 0 0 191.32 122.58
  L 224.68 122.58
  A 15.14 15.14 0.0 0 0 239.82 107.44
  L 239.82 105.92
  Z
  M 133.13 169.90
  A 15.12 15.12 0.0 0 0 118.01 154.78
  L 84.61 154.78
  A 15.12 15.12 0.0 0 0 69.49 169.90
  L 69.49 171.46
  A 15.12 15.12 0.0 0 0 84.61 186.58
  L 118.01 186.58
  A 15.12 15.12 0.0 0 0 133.13 171.46
  L 133.13 169.90
  Z
  M 239.82 169.92
  A 15.14 15.14 0.0 0 0 224.68 154.78
  L 191.32 154.78
  A 15.14 15.14 0.0 0 0 176.18 169.92
  L 176.18 171.44
  A 15.14 15.14 0.0 0 0 191.32 186.58
  L 224.68 186.58
  A 15.14 15.14 0.0 0 0 239.82 171.44
  L 239.82 169.92
  Z
  M 133.13 233.90
  A 15.12 15.12 0.0 0 0 118.01 218.78
  L 84.61 218.78
  A 15.12 15.12 0.0 0 0 69.49 233.90
  L 69.49 235.46
  A 15.12 15.12 0.0 0 0 84.61 250.58
  L 118.01 250.58
  A 15.12 15.12 0.0 0 0 133.13 235.46
  L 133.13 233.90
  Z
  M 239.82 233.92
  A 15.14 15.14 0.0 0 0 224.68 218.78
  L 191.32 218.78
  A 15.14 15.14 0.0 0 0 176.18 233.92
  L 176.18 235.44
  A 15.14 15.14 0.0 0 0 191.32 250.58
  L 224.68 250.58
  A 15.14 15.14 0.0 0 0 239.82 235.44
  L 239.82 233.92
  Z
  M 133.13 297.90
  A 15.12 15.12 0.0 0 0 118.01 282.78
  L 84.61 282.78
  A 15.12 15.12 0.0 0 0 69.49 297.90
  L 69.49 299.46
  A 15.12 15.12 0.0 0 0 84.61 314.58
  L 118.01 314.58
  A 15.12 15.12 0.0 0 0 133.13 299.46
  L 133.13 297.90
  Z
  M 239.8213 297.9655
  A 15.14 15.14 0.0 0 0 224.7077 282.7991
  L 191.3478 282.7409
  A 15.14 15.14 0.0 0 0 176.1814 297.8545
  L 176.1787 299.3945
  A 15.14 15.14 0.0 0 0 191.2923 314.5609
  L 224.6522 314.6191
  A 15.14 15.14 0.0 0 0 239.8186 299.5055
  L 239.8213 297.9655
  Z"
/>
<path fill="#256178" d="
  M 512.00 265.12
  L 512.00 477.00
  C 509.81 496.37 496.70 509.92 477.12 512.00
  L 330.70 512.00
  L 330.70 199.84
  A 0.31 0.31 0.0 0 1 331.07 199.54
  Q 401.99 214.44 472.98 229.28
  Q 486.69 232.15 491.96 234.82
  Q 509.22 243.59 512.00 265.12
  Z
  M 447.82 303.23
  A 15.12 15.12 0.0 0 0 432.70 288.11
  L 399.30 288.11
  A 15.12 15.12 0.0 0 0 384.18 303.23
  L 384.18 304.77
  A 15.12 15.12 0.0 0 0 399.30 319.89
  L 432.70 319.89
  A 15.12 15.12 0.0 0 0 447.82 304.77
  L 447.82 303.23
  Z
  M 447.82 367.23
  A 15.12 15.12 0.0 0 0 432.70 352.11
  L 399.30 352.11
  A 15.12 15.12 0.0 0 0 384.18 367.23
  L 384.18 368.77
  A 15.12 15.12 0.0 0 0 399.30 383.89
  L 432.70 383.89
  A 15.12 15.12 0.0 0 0 447.82 368.77
  L 447.82 367.23
  Z
  M 447.82 431.23
  A 15.12 15.12 0.0 0 0 432.70 416.11
  L 399.30 416.11
  A 15.12 15.12 0.0 0 0 384.18 431.23
  L 384.18 432.77
  A 15.12 15.12 0.0 0 0 399.30 447.89
  L 432.70 447.89
  A 15.12 15.12 0.0 0 0 447.82 432.77
  L 447.82 431.23
  Z"
/>
</svg>
