<?xml version="1.0" encoding="UTF-8" standalone="no"?>
<!DOCTYPE svg PUBLIC "-//W3C//DTD SVG 1.1//EN" "http://www.w3.org/Graphics/SVG/1.1/DTD/svg11.dtd">
<svg xmlns="http://www.w3.org/2000/svg" version="1.1" viewBox="0.00 0.00 981.00 978.00">
<path fill="#ffffff" d="
  M 156.38 0.00
  L 681.75 0.00
  Q 694.12 0.82 697.77 1.22
  C 778.42 10.20 838.93 78.18 838.97 159.50
  Q 839.03 283.96 838.99 408.42
  C 838.99 414.37 838.67 419.94 838.30 425.74
  C 836.15 459.34 824.13 490.90 802.64 516.65
  Q 767.86 558.30 713.70 570.65
  Q 698.97 574.00 690.00 574.00
  Q 563.75 574.00 437.50 574.04
  Q 434.86 574.04 434.01 574.81
  Q 306.07 689.47 178.10 804.10
  Q 175.90 806.07 173.35 807.74
  Q 172.90 808.03 172.68 807.54
  Q 171.99 806.00 171.99 804.25
  Q 172.01 744.06 171.99 683.87
  C 171.98 669.59 170.99 655.25 170.99 641.08
  Q 171.00 607.82 171.00 574.79
  A 0.80 0.80 0.0 0 0 170.19 573.99
  Q 159.00 574.06 147.75 573.97
  Q 133.04 573.84 113.78 568.10
  C 49.88 549.04 4.68 493.95 0.00 426.89
  L 0.00 148.00
  C 0.35 143.55 0.56 138.94 1.25 134.70
  Q 10.41 78.58 51.69 41.03
  C 81.27 14.11 116.88 1.75 156.38 0.00
  Z"
/>
<path fill="#ffffff" d="
  M 782.95 978.00
  L 782.48 978.00
  Q 767.87 963.78 753.93 948.96
  C 734.68 928.49 714.50 908.83 695.29 888.35
  Q 688.10 880.69 681.42 873.94
  C 661.10 853.41 641.22 831.84 621.55 812.04
  C 611.76 802.18 603.62 793.15 594.39 783.97
  C 583.65 773.28 573.51 762.12 562.81 751.32
  Q 552.01 740.42 541.71 729.05
  C 540.26 727.44 538.87 726.97 536.59 726.98
  Q 500.13 727.02 463.67 726.99
  C 449.41 726.98 435.15 725.95 420.88 725.99
  Q 392.13 726.06 363.37 725.97
  Q 362.84 725.97 363.20 725.58
  C 378.86 708.23 391.23 696.66 405.04 681.93
  C 416.10 670.15 427.54 659.11 438.51 647.40
  C 448.34 636.90 457.60 627.82 467.27 618.14
  C 468.40 617.01 469.89 613.94 471.75 613.95
  Q 587.75 614.06 703.75 613.97
  Q 721.49 613.96 723.76 613.89
  C 788.39 611.82 844.34 580.02 870.91 519.36
  C 880.46 497.57 886.71 473.58 886.89 450.00
  Q 887.04 429.75 887.00 409.50
  C 886.98 393.08 887.99 376.62 888.00 360.16
  Q 888.02 299.33 887.98 238.49
  Q 887.97 229.62 888.33 218.51
  Q 889.25 189.84 888.96 160.84
  A 0.74 0.73 -75.8 0 1 890.05 160.19
  C 914.96 174.02 937.06 194.00 952.62 218.02
  Q 980.86 261.60 980.32 314.74
  C 979.48 398.98 980.01 483.27 980.00 567.51
  Q 980.00 580.58 979.32 587.47
  C 977.09 610.34 970.02 632.50 957.44 651.75
  C 922.60 705.07 851.97 722.71 792.46 720.98
  A 1.39 1.38 1.7 0 0 791.03 722.32
  L 782.95 978.00
  Z"
/>
</svg>
