<?xml version="1.0" encoding="UTF-8" standalone="no"?>
<!DOCTYPE svg PUBLIC "-//W3C//DTD SVG 1.1//EN" "http://www.w3.org/Graphics/SVG/1.1/DTD/svg11.dtd">
<svg xmlns="http://www.w3.org/2000/svg" version="1.1" viewBox="0.00 0.00 216.00 216.00">
<path fill="#ffffff" d="
  M 69.18 18.00
  L 148.82 18.00
  A 50.18 50.18 0.0 0 1 199.00 68.18
  L 199.00 147.82
  A 50.18 50.18 0.0 0 1 148.82 198.00
  L 69.18 198.00
  A 50.18 50.18 0.0 0 1 19.00 147.82
  L 19.00 68.18
  A 50.18 50.18 0.0 0 1 69.18 18.00
  Z
  M 178.99 48.00
  A 9.99 9.99 0.0 0 0 169.00 38.01
  A 9.99 9.99 0.0 0 0 159.01 48.00
  A 9.99 9.99 0.0 0 0 169.00 57.99
  A 9.99 9.99 0.0 0 0 178.99 48.00
  Z
  M 158.98 108.00
  A 49.99 49.99 0.0 0 0 108.99 58.01
  A 49.99 49.99 0.0 0 0 59.00 108.00
  A 49.99 49.99 0.0 0 0 108.99 157.99
  A 49.99 49.99 0.0 0 0 158.98 108.00
  Z"
/>
<circle fill="#ffffff" cx="109.00" cy="108.00" r="29.95"/>
</svg>
